<svg xmlns="http://www.w3.org/2000/svg" viewBox="0 0 512 512">
  <defs>
    <linearGradient id="fond" x1="0" y1="0.2" x2="1" y2="0.8">
      <stop offset="0" stop-color="#1b3160"/><stop offset=".45" stop-color="#34497e"/><stop offset=".62" stop-color="#8a5a86"/><stop offset="1" stop-color="#c47a92"/>
    </linearGradient>
    <radialGradient id="voile" cx="256" cy="180" r="300" gradientUnits="userSpaceOnUse">
      <stop offset="0" stop-color="#ffffff" stop-opacity=".12"/><stop offset="1" stop-color="#ffffff" stop-opacity="0"/>
    </radialGradient>
    <linearGradient id="or" x1="0" y1="0" x2="1" y2="1">
      <stop offset="0" stop-color="#e3c27a"/><stop offset="1" stop-color="#b38a3f"/>
    </linearGradient>
    <linearGradient id="criniere" x1="0" y1="-1" x2="0" y2="1">
      <stop offset="0" stop-color="#c8913a"/><stop offset="1" stop-color="#8f5a1f"/>
    </linearGradient>
    <linearGradient id="pelage" x1="0" y1="-1" x2="0" y2="1">
      <stop offset="0" stop-color="#8b5a38"/><stop offset="1" stop-color="#5e3a22"/>
    </linearGradient>
    <clipPath id="cadre"><rect width="512" height="512" rx="112"/></clipPath>
  </defs>
  <g clip-path="url(#cadre)">
    <rect width="512" height="512" fill="url(#fond)"/>
    <rect width="512" height="512" fill="url(#voile)"/>
    <rect x="22" y="22" width="468" height="468" rx="94" fill="none" stroke="url(#or)" stroke-width="3" opacity=".8"/>
    <!-- la pousse qui grandit, en or -->
    <g stroke="url(#or)" stroke-linecap="round" fill="none">
      <path d="M256 300 C256 240 254 180 256 104" stroke-width="7"/>
      <path d="M255 170 C218 168 194 140 196 106 C230 106 255 132 255 170 Z" fill="url(#or)" stroke-width="3"/>
      <path d="M257 136 C288 134 310 112 312 82 C280 82 257 104 257 136 Z" fill="url(#or)" stroke-width="3"/>
    </g>
    <!-- Titi, le lion -->
    <g transform="translate(150 330) scale(1.3)"><g>
    <!-- crinière : deux couronnes de mèches -->
    <path fill="url(#criniere)" stroke="url(#criniere)" stroke-width="6" stroke-linejoin="round" d="M0.0 -87.4 L11.1 -65.5 L28.7 -82.1 L32.0 -57.6 L54.0 -66.9 L49.0 -42.8 L72.7 -43.7 L60.1 -22.8 L82.7 -15.2 L64.0 0.0 L82.7 15.2 L60.1 22.8 L72.7 43.7 L49.0 42.8 L54.0 66.9 L32.0 57.6 L28.7 82.1 L11.1 65.5 L0.0 87.4 L-11.1 65.5 L-28.7 82.1 L-32.0 57.6 L-54.0 66.9 L-49.0 42.8 L-72.7 43.7 L-60.1 22.8 L-82.7 15.2 L-64.0 0.0 L-82.7 -15.2 L-60.1 -22.8 L-72.7 -43.7 L-49.0 -42.8 L-54.0 -66.9 L-32.0 -57.6 L-28.7 -82.1 L-11.1 -65.5 L0.0 -87.4 Z"/>
    <path fill="#b27a2e" stroke="#b27a2e" stroke-width="5" stroke-linejoin="round" d="M12.9 -68.6 L19.1 -49.0 L36.7 -58.2 L35.4 -37.5 L54.9 -38.9 L46.2 -20.3 L64.7 -13.6 L50.0 0.0 L64.7 13.6 L46.2 20.3 L54.9 38.9 L35.4 37.5 L36.7 58.2 L19.1 49.0 L12.9 68.6 L0.0 53.0 L-12.9 68.6 L-19.1 49.0 L-36.7 58.2 L-35.4 37.5 L-54.9 38.9 L-46.2 20.3 L-64.7 13.6 L-50.0 0.0 L-64.7 -13.6 L-46.2 -20.3 L-54.9 -38.9 L-35.4 -37.5 L-36.7 -58.2 L-19.1 -49.0 L-12.9 -68.6 L-0.0 -53.0 L12.9 -68.6 Z"/>
    <!-- oreilles -->
    <circle cx="-30" cy="-36" r="10" fill="#d9aa5c"/><circle cx="30" cy="-36" r="10" fill="#d9aa5c"/>
    <circle cx="-30" cy="-36" r="5" fill="#8f5a1f"/><circle cx="30" cy="-36" r="5" fill="#8f5a1f"/>
    <!-- visage -->
    <path fill="#e7bd6f" d="M0-44 C24-44 38-28 38-8 C38 12 30 30 16 40 C10 44 -10 44 -16 40 C-30 30 -38 12 -38-8 C-38-28 -24-44 0-44 Z"/>
    <path fill="#f3dba6" d="M0 6 C12 6 22 14 22 24 C22 34 12 40 0 40 C-12 40 -22 34 -22 24 C-22 14 -12 6 0 6 Z"/>
    <!-- arête du nez -->
    <path fill="#f3dba6" opacity=".7" d="M-7-22 L7-22 L9 8 L-9 8 Z"/>
    <!-- yeux en amande -->
    <path fill="#1d140c" d="M-26-12 Q-18-19 -9-13 Q-18-8 -26-12 Z"/>
    <path fill="#1d140c" d="M26-12 Q18-19 9-13 Q18-8 26-12 Z"/>
    <circle cx="-15" cy="-13" r="1.4" fill="#f6e7c1"/><circle cx="15" cy="-13" r="1.4" fill="#f6e7c1"/>
    <path d="M-28-20 Q-19-25 -10-21 M28-20 Q19-25 10-21" stroke="#9c6a2a" stroke-width="2" fill="none" stroke-linecap="round"/>
    <!-- truffe et bouche -->
    <path fill="#4a2c17" d="M-9 8 L9 8 Q9 14 0 18 Q-9 14 -9 8 Z"/>
    <path d="M0 18 V24 M0 24 Q-6 30 -12 27 M0 24 Q6 30 12 27" stroke="#4a2c17" stroke-width="2" fill="none" stroke-linecap="round"/>
    <g fill="#b88a45"><circle cx="-12" cy="16" r="1.3"/><circle cx="-15" cy="21" r="1.3"/><circle cx="12" cy="16" r="1.3"/><circle cx="15" cy="21" r="1.3"/></g>
  </g></g>
    <!-- Loulou, la loutre -->
    <g transform="translate(362 330) scale(1.38)"><g>
    <!-- cou / épaules -->
    <path fill="#654029" d="M-50 6 C-58 50 -66 100 -92 170 L92 170 C66 100 58 50 50 6 Z"/><path fill="#cfae86" d="M-26 44 C-30 70 -30 110 -24 170 L24 170 C30 110 30 70 26 44 Z" opacity=".9"/>
    <!-- oreilles -->
    <ellipse cx="-44" cy="-30" rx="10" ry="9" fill="#6b432a"/><ellipse cx="44" cy="-30" rx="10" ry="9" fill="#6b432a"/>
    <ellipse cx="-44" cy="-30" rx="5" ry="4.5" fill="#3f2616"/><ellipse cx="44" cy="-30" rx="5" ry="4.5" fill="#3f2616"/>
    <!-- tête -->
    <path fill="url(#pelage)" d="M0-52 C34-52 54-30 54-4 C54 26 32 48 0 48 C-32 48 -54 26 -54-4 C-54-30 -34-52 0-52 Z"/>
    <!-- masque clair du museau et des joues -->
    <path fill="#d9b88f" d="M0 0 C18-4 40 2 42 18 C44 34 24 44 0 44 C-24 44 -44 34 -42 18 C-40 2 -18-4 0 0 Z"/>
    <!-- yeux -->
    <circle cx="-21" cy="-12" r="6" fill="#140d08"/><circle cx="21" cy="-12" r="6" fill="#140d08"/>
    <circle cx="-19" cy="-14" r="1.8" fill="#f3e6cf"/><circle cx="23" cy="-14" r="1.8" fill="#f3e6cf"/>
    <!-- truffe -->
    <path fill="#24160d" d="M-12 6 C-12 2 12 2 12 6 C12 12 5 16 0 16 C-5 16 -12 12 -12 6 Z"/>
    <path d="M-5 5 Q0 3 5 5" stroke="#6b4a36" stroke-width="1.5" fill="none" stroke-linecap="round"/>
    <!-- bouche -->
    <path d="M0 16 V22 M0 22 Q-6 28 -12 25 M0 22 Q6 28 12 25" stroke="#3a2415" stroke-width="2" fill="none" stroke-linecap="round"/>
    <!-- moustaches -->
    <g stroke="#f6ecdc" stroke-width="1.4" stroke-linecap="round" opacity=".85" fill="none">
      <path d="M-18 18 Q-40 12 -62 14"/><path d="M-18 22 Q-40 22 -60 28"/><path d="M-18 26 Q-36 32 -54 42"/>
      <path d="M18 18 Q40 12 62 14"/><path d="M18 22 Q40 22 60 28"/><path d="M18 26 Q36 32 54 42"/>
    </g>
    <g fill="#8a6848"><circle cx="-14" cy="19" r="1.3"/><circle cx="-18" cy="24" r="1.3"/><circle cx="14" cy="19" r="1.3"/><circle cx="18" cy="24" r="1.3"/></g>
  </g></g>
  </g>
</svg>
